<?xml version="1.0" encoding="utf-8"?>
<!-- Generator: Adobe Illustrator 17.0.0, SVG Export Plug-In . SVG Version: 6.00 Build 0)  -->
<!DOCTYPE svg PUBLIC "-//W3C//DTD SVG 1.1//EN" "http://www.w3.org/Graphics/SVG/1.1/DTD/svg11.dtd">
<svg version="1.1" id="Слой_1" xmlns="http://www.w3.org/2000/svg" xmlns:xlink="http://www.w3.org/1999/xlink" x="0px" y="0px"
	 width="130px" height="30px" viewBox="0 0 130 30" enable-background="new 0 0 130 30" xml:space="preserve">
<rect x="1.753" y="6.739" fill="#FFFFFF" width="126.542" height="3"/>
<g>
	<path fill="#444444" d="M8.215,8.239c0,0.428-0.143,0.786-0.428,1.071C7.501,9.597,7.144,9.739,6.716,9.739
		c-0.43,0-0.786-0.142-1.073-0.429C5.357,9.026,5.215,8.667,5.215,8.239c0-0.429,0.142-0.785,0.428-1.071
		c0.287-0.286,0.643-0.43,1.073-0.43c0.428,0,0.785,0.143,1.071,0.43C8.072,7.454,8.215,7.811,8.215,8.239z"/>
	<path fill="#444444" d="M3.315,8.239c0,0.428-0.143,0.786-0.428,1.071C2.601,9.597,2.244,9.739,1.816,9.739
		c-0.43,0-0.786-0.142-1.073-0.429C0.457,9.026,0.315,8.667,0.315,8.239c0-0.429,0.142-0.785,0.428-1.071
		c0.287-0.286,0.643-0.43,1.073-0.43c0.428,0,0.785,0.143,1.071,0.43C3.172,7.454,3.315,7.811,3.315,8.239z"/>
	<path fill="#444444" stroke="#444444" stroke-width="0.5" stroke-miterlimit="10" d="M63.651,16.216h-0.63
		c-0.595-2.484-1.539-4.215-2.834-5.195c-1.819-1.365-4.339-2.046-7.556-2.046H18.623l-0.105,0.314
		c0.944,0.735,1.417,1.662,1.417,2.782c0,0.139-0.053,0.455-0.158,0.944c-0.105,0.491-0.42,0.963-0.945,1.417
		c-0.524,0.455-1.172,0.683-1.941,0.683c-0.315,0-0.56-0.053-0.735-0.158c-0.35-0.349-0.577-0.577-0.682-0.682
		c0.455-0.211,0.752-0.42,0.892-0.63c0.14-0.21,0.21-0.543,0.21-0.997c-0.105-0.978-0.735-1.836-1.889-2.571
		c-1.4-0.874-3.254-1.313-5.563-1.313V7.609h44.187c2.484,0,4.654,0.544,6.508,1.627C62.373,10.742,63.651,13.067,63.651,16.216z"/>
	<path fill="#444444" stroke="#444444" stroke-width="0.5" stroke-miterlimit="10" d="M63.178,20.572
		c-0.42,1.645-1.47,3.009-3.149,4.093c-1.68,1.085-3.551,1.627-5.615,1.627c-0.91,0-1.819-0.113-2.729-0.341
		c-0.91-0.227-1.819-0.656-2.729-1.286c-0.176,0.176-0.36,0.341-0.552,0.499c-0.192,0.157-0.429,0.166-0.709,0.026
		c-0.315-0.244-0.472-0.437-0.472-0.578c0-0.139,0.086-0.419,0.262-0.839c-1.855-1.015-3.569-1.994-5.143-2.939
		c-1.889-1.189-3.778-2.379-5.667-3.568c-1.19-0.664-2.362-1.329-3.516-1.994c-1.121-0.525-2.257-0.787-3.411-0.787
		c-0.665,0-1.278,0.166-1.837,0.498c-0.56,0.334-0.839,0.848-0.839,1.548c0,0.665,0.191,1.137,0.576,1.417
		c0.176,0.14,0.578,0.262,1.208,0.367c-0.211,0.21-0.447,0.36-0.709,0.447c-0.262,0.087-0.639,0.131-1.128,0.131
		c-0.7,0-1.304-0.27-1.81-0.814c-0.508-0.542-0.761-1.198-0.761-1.967c0-1.189,0.479-2.196,1.442-3.018
		c0.962-0.822,2.37-1.233,4.225-1.233c1.539,0,3.201,0.612,4.986,1.836c0.664,0.455,1.417,1.05,2.256,1.785l0.158-0.21
		c-0.351-0.42-0.63-0.866-0.84-1.339c-0.211-0.471-0.36-0.892-0.447-1.259c-0.088-0.368-0.131-0.664-0.131-0.892
		c0-0.227,0-0.446,0-0.656c0.909,0.349,1.766,0.875,2.572,1.575c0.595,0.524,1.294,1.294,2.099,2.308
		c0.945,1.331,1.644,2.309,2.1,2.939c0.84,1.12,1.679,1.908,2.518,2.362c-0.244-0.769-0.367-1.574-0.367-2.414
		c0-1.749,0.569-3.193,1.706-4.33c1.136-1.136,2.475-1.705,4.015-1.705c1.678,0,3.034,0.428,4.066,1.285
		c1.031,0.858,1.549,1.987,1.549,3.385c0,1.226-0.42,2.187-1.26,2.886c-0.7,0.596-1.434,0.893-2.204,0.893
		c-1.154,0-2.065-0.315-2.729-0.945c-0.665-0.629-0.997-1.399-0.997-2.309c0-1.504,0.648-2.257,1.942-2.257
		c0.384,0,0.778,0.131,1.18,0.394c0.402,0.262,0.604,0.569,0.604,0.919c0,0.349-0.097,0.637-0.289,0.866
		c-0.193,0.228-0.604,0.375-1.234,0.445c-0.176,0.176-0.262,0.368-0.262,0.578c0,0.349,0.157,0.63,0.472,0.839
		c0.315,0.21,0.647,0.315,0.998,0.315c0.734,0,1.346-0.244,1.837-0.735c0.489-0.489,0.735-1.084,0.735-1.784
		c0-1.084-0.368-1.976-1.103-2.676c-0.735-0.7-1.75-1.05-3.043-1.05c-1.365,0-2.528,0.447-3.49,1.339
		c-0.963,0.892-1.443,2.091-1.443,3.594c0,1.155,0.2,2.204,0.604,3.148c0.401,0.945,0.919,1.593,1.549,1.942
		c0.139-0.139,0.296-0.27,0.472-0.393c0.174-0.123,0.42-0.131,0.735-0.026c0.315,0.139,0.473,0.349,0.473,0.63
		c0,0.244-0.106,0.506-0.315,0.787c0.84,0.524,1.592,0.884,2.257,1.075c0.664,0.193,1.556,0.289,2.677,0.289
		c1.714,0,3.288-0.385,4.722-1.155c1.749-0.944,2.921-2.326,3.517-4.145L63.178,20.572z"/>
	<path fill="#444444" d="M69.633,17.896c0,0.385-0.018,0.647-0.053,0.787c-0.14,0.559-0.472,0.84-0.997,0.84
		c-0.28,0-0.665-0.07-1.154-0.211c-1.121-0.314-1.925-0.472-2.415-0.472c-0.42,0-0.91,0.071-1.47,0.21
		c-1.225,0.315-1.924,0.473-2.099,0.473c-0.386,0-0.656-0.158-0.814-0.473c-0.158-0.314-0.236-0.7-0.236-1.154
		c0-0.63,0.401-0.945,1.207-0.945h6.823C69.231,16.951,69.633,17.266,69.633,17.896z"/>
	<path fill="#444444" d="M67.587,6.35c0,1.189-0.272,2.37-0.814,3.542c-0.543,1.173-1.129,2.091-1.758,2.755
		c-0.63-0.664-1.19-1.522-1.679-2.571C62.74,8.782,62.444,7.54,62.444,6.35c0-1.12,0.419-2.501,1.259-4.146
		C63.983,1.645,64.419,0.91,65.015,0c0.559,0.91,0.979,1.627,1.259,2.152C67.149,3.866,67.587,5.266,67.587,6.35z"/>
	<path fill="#444444" d="M66.8,26.641c0-0.909-0.298-1.959-0.892-3.149c-0.176-0.384-0.473-0.892-0.892-1.521
		c-0.42,0.595-0.717,1.084-0.892,1.469c-0.596,1.19-0.892,2.257-0.892,3.201c0,0.596,0.296,1.33,0.892,2.204
		c0.175,0.28,0.472,0.664,0.892,1.155c0.42-0.491,0.717-0.875,0.892-1.155C66.501,27.971,66.8,27.236,66.8,26.641z"/>
	<path fill="#444444" stroke="#444444" stroke-width="0.5" stroke-miterlimit="10" d="M120.906,8.764
		c-2.344,0-4.198,0.421-5.563,1.26c-1.154,0.735-1.784,1.61-1.889,2.624c0,0.701,0.175,1.154,0.525,1.364
		c0.034,0,0.228,0.087,0.578,0.263c-0.176,0.176-0.333,0.35-0.472,0.524c-0.246,0.21-0.56,0.316-0.945,0.316
		c-0.769,0-1.416-0.228-1.941-0.683c-0.525-0.454-0.84-0.926-0.945-1.417c-0.105-0.489-0.157-0.821-0.157-0.997
		c0-1.083,0.472-1.994,1.418-2.729l-0.106-0.314H77.4c-4.129,0-7.05,1.068-8.764,3.2c-0.63,0.77-1.172,2.119-1.627,4.041h-0.63
		c0-3.114,1.277-5.422,3.832-6.927c1.889-1.119,4.058-1.679,6.507-1.679h44.188V8.764z"/>
	<path fill="#444444" stroke="#444444" stroke-width="0.5" stroke-miterlimit="10" d="M105.582,16.112
		c0,0.769-0.254,1.425-0.761,1.967c-0.508,0.544-1.111,0.814-1.811,0.814c-0.77,0-1.383-0.191-1.837-0.578
		c0.805-0.139,1.303-0.322,1.496-0.55c0.191-0.228,0.288-0.638,0.288-1.234c0-0.7-0.281-1.215-0.84-1.548
		c-0.56-0.332-1.172-0.498-1.837-0.498c-1.12,0-2.24,0.262-3.359,0.787c-0.176,0.071-1.365,0.735-3.569,1.994
		c-2.31,1.436-4.199,2.606-5.667,3.516c-1.925,1.189-3.64,2.186-5.143,2.991c0.175,0.42,0.262,0.7,0.262,0.839
		c0,0.141-0.157,0.334-0.473,0.578c-0.28,0.14-0.525,0.14-0.734,0c-0.246-0.28-0.42-0.454-0.525-0.525
		c-0.91,0.63-1.811,1.059-2.703,1.286c-0.892,0.228-1.811,0.341-2.755,0.341c-2.064,0-3.937-0.532-5.616-1.601
		c-1.679-1.067-2.729-2.44-3.148-4.119l0.419-0.577c0.595,1.819,1.766,3.201,3.516,4.145c1.435,0.77,3.009,1.155,4.724,1.155
		c1.819,0,3.464-0.454,4.933-1.364c-0.21-0.281-0.315-0.559-0.315-0.84c0-0.244,0.157-0.438,0.472-0.577
		c0.28-0.105,0.525-0.105,0.735,0c0.21,0.175,0.368,0.314,0.473,0.419c0.595-0.349,1.102-0.988,1.523-1.915
		c0.419-0.926,0.629-1.985,0.629-3.175c0-1.504-0.481-2.702-1.443-3.594c-0.963-0.892-2.126-1.339-3.49-1.339
		c-1.26,0-2.266,0.359-3.018,1.076c-0.753,0.717-1.128,1.601-1.128,2.65c0,0.701,0.244,1.295,0.735,1.784
		c0.489,0.491,1.102,0.735,1.837,0.735c0.979,0,1.47-0.385,1.47-1.154c0-0.21-0.089-0.402-0.263-0.578
		c-0.524-0.07-0.91-0.183-1.154-0.341c-0.245-0.157-0.367-0.48-0.367-0.97c0-0.386,0.184-0.7,0.551-0.945
		c0.368-0.244,0.778-0.368,1.234-0.368c1.293,0,1.941,0.858,1.941,2.572c0,0.769-0.334,1.452-0.997,2.046
		c-0.665,0.596-1.574,0.893-2.729,0.893c-0.77,0-1.488-0.281-2.152-0.84c-0.875-0.734-1.312-1.714-1.312-2.939
		c0-1.364,0.524-2.484,1.574-3.359c1.05-0.873,2.396-1.311,4.041-1.311c1.539,0,2.877,0.569,4.015,1.705
		c1.136,1.137,1.705,2.598,1.705,4.382c0,0.455-0.017,0.822-0.052,1.102c-0.035,0.281-0.14,0.701-0.315,1.26
		c0.84-0.454,1.68-1.242,2.519-2.362c0.7-0.979,1.399-1.959,2.099-2.939c0.874-1.083,1.556-1.854,2.047-2.308
		c0.734-0.664,1.609-1.19,2.624-1.575c0,0.281,0,0.491,0,0.63c0,0.315-0.018,0.524-0.052,0.63c-0.281,1.12-0.735,2.081-1.365,2.886
		l0.157,0.21c1.539-1.33,2.877-2.265,4.015-2.808c1.136-0.542,2.212-0.813,3.227-0.813c1.855,0,3.289,0.438,4.304,1.311
		C105.127,13.942,105.582,14.922,105.582,16.112z"/>
	<path fill="#444444" d="M124.785,8.239c0,0.419-0.141,0.77-0.42,1.049c-0.28,0.281-0.63,0.42-1.049,0.42
		c-0.42,0-0.77-0.139-1.05-0.42c-0.281-0.279-0.42-0.63-0.42-1.049c0-0.42,0.139-0.769,0.42-1.049
		c0.279-0.281,0.629-0.421,1.05-0.421c0.419,0,0.769,0.14,1.049,0.421C124.644,7.47,124.785,7.819,124.785,8.239z"/>
	<path fill="#444444" d="M129.685,8.239c0,0.419-0.141,0.77-0.42,1.049c-0.28,0.281-0.63,0.42-1.049,0.42
		c-0.42,0-0.77-0.139-1.05-0.42c-0.281-0.279-0.42-0.63-0.42-1.049c0-0.42,0.139-0.769,0.42-1.049
		c0.279-0.281,0.629-0.421,1.05-0.421c0.419,0,0.769,0.14,1.049,0.421C129.544,7.47,129.685,7.819,129.685,8.239z"/>
</g>
</svg>
